<?xml version="1.0" standalone="no"?>
<!DOCTYPE svg PUBLIC "-//W3C//DTD SVG 20010904//EN"
 "http://www.w3.org/TR/2001/REC-SVG-20010904/DTD/svg10.dtd">
<svg version="1.0" xmlns="http://www.w3.org/2000/svg"
 width="480.000000pt" height="562.000000pt" viewBox="0 0 480.000000 562.000000"
 preserveAspectRatio="xMidYMid meet">

<g transform="translate(0.000000,562.000000) scale(0.100000,-0.100000)"
fill="#000000" stroke="none">
<path d="M344 5586 c14 -19 26 -37 26 -40 0 -14 60 -67 69 -61 13 8 8 29 -21
93 -19 39 -23 42 -60 42 l-40 0 26 -34z"/>
<path d="M510 5606 c0 -8 7 -21 15 -30 8 -8 15 -18 15 -21 0 -4 18 -29 41 -56
54 -65 93 -77 197 -61 42 7 81 17 86 22 6 6 18 10 27 10 10 0 31 12 48 26 17
14 31 21 31 15 0 -6 5 -11 10 -11 15 0 12 16 -5 34 -8 8 -15 31 -15 50 l0 36
-225 0 c-188 0 -225 -2 -225 -14z"/>
<path d="M3950 5615 c0 -3 5 -13 11 -23 19 -31 -10 -93 -56 -116 -29 -16 -46
-35 -67 -76 -15 -30 -45 -72 -68 -92 -22 -20 -40 -39 -40 -43 0 -8 -26 -35
-34 -35 -3 0 -22 12 -43 26 -62 42 -234 120 -294 133 -31 6 -109 18 -175 26
-178 21 -313 42 -416 66 -104 23 -260 33 -328 19 -25 -4 -79 -13 -120 -20 -53
-8 -103 -25 -167 -58 -51 -25 -93 -50 -93 -54 0 -4 -7 -8 -15 -8 -9 0 -15 -10
-16 -22 -1 -18 -3 -16 -10 10 -5 17 -12 32 -15 32 -3 0 -2 -10 1 -21 6 -16 4
-20 -6 -14 -11 6 -12 5 -2 -6 15 -16 17 -33 3 -24 -6 3 -13 -1 -16 -9 -3 -9
-10 -13 -15 -10 -5 3 -9 0 -9 -6 0 -6 -20 -30 -44 -53 -24 -23 -60 -67 -80
-97 -19 -30 -44 -66 -55 -80 -11 -14 -20 -32 -20 -40 0 -10 2 -11 6 -2 8 21
24 13 20 -12 -1 -13 -21 -44 -43 -68 -22 -23 -55 -65 -74 -93 -18 -27 -38 -53
-43 -56 -5 -3 -8 -9 -8 -13 3 -25 -1 -35 -13 -30 -7 3 -17 -3 -21 -13 -11 -25
-16 -103 -7 -103 10 0 62 106 62 124 0 8 7 16 15 20 8 3 15 12 15 20 0 8 11
28 25 44 21 25 32 30 69 29 46 -1 51 -12 12 -27 -20 -8 -19 -9 12 -21 17 -8
32 -17 32 -21 0 -12 -14 -10 -27 3 -15 15 -72 4 -100 -20 -21 -17 -123 -213
-138 -263 -12 -42 -30 -78 -38 -78 -5 0 -6 -4 -3 -9 8 -12 -14 -71 -26 -71 -5
0 -7 -4 -3 -10 7 -11 -4 -60 -14 -60 -12 0 1 105 15 116 19 15 34 101 24 130
-6 16 -20 25 -42 28 -44 7 -386 19 -516 18 -133 0 -137 -3 -145 -119 -5 -74
-3 -93 14 -132 12 -25 23 -59 26 -76 2 -16 11 -37 19 -45 14 -13 15 -12 9 13
-9 34 11 63 31 47 8 -7 11 -24 7 -46 -3 -19 -1 -34 4 -34 5 0 9 -17 9 -37 -1
-31 -5 -39 -23 -41 -13 -2 -23 1 -23 7 0 6 -6 10 -12 9 -8 -2 -13 8 -13 26 -1
16 -6 31 -13 34 -7 2 -12 -1 -12 -7 0 -5 -11 -21 -25 -35 -22 -22 -25 -34 -26
-99 -1 -41 4 -82 9 -93 6 -10 13 -27 16 -36 4 -15 17 -18 65 -18 33 0 66 -3
75 -6 19 -7 38 -72 38 -130 0 -53 28 -94 64 -94 14 0 38 -7 54 -15 37 -19 50
-13 80 35 14 22 33 40 42 40 10 0 26 8 36 18 22 22 49 34 77 36 10 1 26 13 34
28 13 22 13 28 1 43 -21 25 -21 43 0 38 10 -3 36 7 58 21 22 13 42 22 46 19 3
-3 12 0 21 7 8 7 22 10 30 6 9 -3 15 0 15 10 0 8 6 17 14 20 11 4 13 12 6 30
-6 15 -6 24 1 24 5 0 12 -7 15 -15 5 -11 21 -15 58 -14 28 0 45 3 39 6 -25 9
-13 49 23 81 40 35 54 40 54 17 0 -8 -5 -15 -11 -15 -7 0 -9 -9 -6 -22 4 -12
1 -28 -5 -35 -6 -8 -7 -17 -3 -21 4 -4 10 -1 12 6 3 6 12 12 20 12 13 0 13 -2
2 -17 -13 -15 -12 -15 11 -2 14 8 31 14 39 14 17 0 38 31 28 42 -5 4 -12 1
-17 -7 -5 -8 -12 -11 -16 -7 -4 4 0 15 9 25 15 14 21 15 38 4 16 -10 24 -10
35 -1 20 16 7 30 -22 23 -19 -5 -23 -3 -18 10 3 9 16 16 28 16 28 1 58 24 46
36 -6 6 -3 29 10 63 11 30 17 57 15 62 -5 8 33 25 48 21 4 -1 7 7 7 18 0 11 4
20 10 20 5 0 7 6 4 14 -3 9 5 22 20 32 28 18 112 28 121 14 3 -4 -5 -6 -17 -3
-16 3 -19 2 -10 -4 9 -7 10 -16 3 -36 -10 -25 -8 -27 15 -27 14 0 23 4 19 10
-4 6 5 5 20 -2 19 -8 25 -17 21 -31 -4 -15 -2 -17 7 -8 18 18 40 13 34 -8 -6
-23 33 -38 45 -18 5 8 10 0 14 -19 5 -24 10 -30 24 -27 13 3 18 0 17 -13 -1
-11 12 -25 35 -37 21 -11 44 -34 52 -52 12 -24 25 -34 48 -39 60 -12 86 -29
92 -59 5 -23 10 -27 25 -22 16 5 20 0 23 -22 2 -16 9 -28 18 -29 31 -2 34 -6
15 -14 -15 -7 -10 -9 23 -9 23 -1 42 -5 42 -11 0 -5 11 -10 25 -10 32 0 32
-18 -1 -46 -25 -22 -25 -23 -5 -34 21 -11 21 -11 -5 -50 -19 -28 -25 -47 -20
-65 6 -23 4 -25 -19 -19 -15 4 -32 1 -40 -6 -9 -8 -31 -11 -55 -7 -24 3 -40 1
-40 -5 0 -6 -11 -8 -24 -4 -13 3 -35 2 -47 -3 -20 -7 -17 -9 26 -19 28 -6 66
-13 87 -17 27 -4 35 -10 33 -23 -2 -9 -4 -25 -4 -34 -1 -14 -10 -18 -37 -18
-19 0 -42 -7 -51 -16 -9 -8 -22 -13 -30 -10 -8 4 -28 -1 -43 -11 l-29 -17 23
-11 c13 -7 40 -15 60 -19 31 -6 35 -10 26 -22 -7 -8 -11 -14 -9 -15 2 0 14 -2
26 -3 41 -5 44 -27 5 -31 -9 -2 -33 -8 -52 -16 -34 -13 -34 -13 -10 -19 14 -3
25 -12 25 -20 0 -8 4 -21 8 -27 5 -7 5 -18 1 -25 -5 -8 -2 -9 9 -5 22 8 22 -2
0 -19 -11 -8 -13 -13 -5 -14 6 0 12 -8 12 -17 0 -13 -3 -14 -12 -5 -19 19 -38
14 -48 -13 -6 -16 -17 -25 -31 -25 -15 0 -19 5 -15 15 7 19 2 19 -34 0 -18 -9
-31 -11 -35 -5 -8 12 -95 13 -95 1 0 -5 -26 -17 -57 -26 -32 -9 -65 -19 -73
-22 -12 -3 -13 -5 0 -13 17 -11 14 -14 -27 -28 -25 -8 -35 -8 -40 1 -10 16
-35 15 -48 -1 -6 -7 -20 -14 -32 -14 -12 -1 -19 -7 -16 -15 3 -7 -6 -15 -20
-18 -22 -6 -37 -22 -41 -45 -1 -3 -5 -11 -9 -17 -5 -8 -3 -13 6 -13 8 0 13 -9
13 -22 -1 -15 7 -24 24 -29 l25 -7 -22 -7 c-35 -11 -27 -25 15 -25 27 0 33 3
22 10 -11 7 -5 10 23 10 21 0 36 -4 33 -9 -6 -10 24 -25 32 -16 3 3 0 5 -6 5
-7 0 -12 5 -12 10 0 12 49 3 64 -11 13 -12 26 -11 26 1 0 6 -7 10 -16 10 -8 0
-12 5 -9 10 9 15 67 11 89 -5 11 -8 16 -15 11 -15 -5 0 2 -11 15 -25 19 -20
20 -25 7 -25 -10 0 -14 -6 -11 -14 3 -8 1 -17 -5 -21 -6 -3 -8 -17 -5 -31 5
-19 2 -24 -12 -24 -17 0 -16 -2 3 -15 25 -17 21 -50 -7 -65 -10 -6 -24 -16
-32 -23 -7 -7 -26 -22 -42 -35 -16 -12 -23 -22 -17 -22 16 0 30 -42 20 -61
-11 -21 35 -63 62 -56 15 4 19 0 19 -18 0 -13 4 -25 9 -27 12 -4 17 -67 7 -95
-4 -13 -13 -23 -20 -23 -8 0 -16 -14 -20 -31 -4 -22 -10 -30 -21 -25 -8 3 -25
-5 -39 -19 -15 -15 -31 -22 -40 -19 -11 4 -16 1 -16 -10 0 -19 -20 -22 -21 -3
0 6 -5 2 -11 -11 -6 -12 -15 -22 -20 -22 -4 0 -24 -16 -42 -35 -19 -19 -41
-35 -49 -35 -11 0 -14 -23 -15 -116 l0 -116 24 22 c13 13 21 26 19 30 -5 9 56
72 63 65 2 -2 1 -12 -3 -22 -4 -10 -9 -31 -10 -48 -6 -62 -15 -100 -25 -103
-5 -2 -10 -11 -10 -21 0 -9 -4 -21 -9 -26 -16 -18 -24 -112 -10 -121 7 -4 14
-3 17 4 2 7 8 12 13 12 4 0 6 -7 3 -15 -4 -10 0 -15 15 -15 12 0 21 6 21 15 0
9 9 15 25 15 14 0 24 3 23 8 -1 4 7 25 17 47 10 22 17 44 16 48 -1 5 3 6 9 2
5 -3 13 1 16 9 3 9 17 16 31 16 22 0 24 3 19 25 -5 18 -2 25 8 25 8 0 23 3 33
6 11 4 14 3 6 -3 -7 -5 2 -8 27 -8 21 0 37 3 34 6 -2 4 13 -2 33 -12 21 -11
42 -19 48 -19 6 0 38 -13 70 -30 32 -17 66 -30 75 -30 19 0 40 -19 40 -37 0
-7 -9 -13 -20 -13 -11 0 -20 -7 -20 -15 0 -8 5 -15 11 -15 5 0 7 -4 4 -10 -3
-5 -15 -10 -25 -10 -27 0 -34 -17 -35 -82 -1 -40 3 -58 11 -58 26 0 63 -47 70
-88 4 -27 3 -42 -4 -42 -6 0 -14 -9 -17 -20 -5 -15 -15 -20 -38 -20 -24 0 -36
-7 -49 -27 -14 -24 -21 -27 -63 -24 -40 2 -47 0 -42 -13 5 -12 0 -16 -23 -16
-21 0 -28 -4 -24 -14 6 -16 -47 -32 -66 -21 -6 4 -18 1 -26 -6 -16 -13 -24 -9
-28 13 -1 7 -5 19 -10 26 -4 7 -5 16 -2 20 4 3 -6 11 -21 17 -20 8 -31 24 -42
60 -16 48 -35 68 -44 43 -2 -7 -3 -5 -2 4 2 9 -7 27 -19 40 -11 12 -21 29 -21
38 0 9 -9 15 -23 14 -12 0 -22 3 -22 8 0 4 -6 8 -12 8 -21 0 -98 44 -98 56 0
7 -6 14 -13 17 -10 4 -13 -2 -9 -19 4 -20 0 -24 -21 -24 -25 0 -25 -1 -20 -58
3 -33 2 -54 -3 -49 -13 13 -21 156 -9 161 22 8 -7 18 -65 23 -69 7 -82 -2 -70
-46 5 -20 13 -25 30 -23 32 3 49 -14 45 -46 -1 -15 -3 -33 -4 -41 -1 -9 -10
-12 -28 -8 -31 6 -53 -1 -53 -15 0 -6 6 -8 12 -5 10 3 12 -10 10 -55 l-4 -60
-25 39 c-14 21 -35 48 -47 61 -17 19 -17 22 -3 16 9 -3 17 -2 17 4 0 5 -11 13
-25 16 -16 4 -25 13 -25 26 0 10 -4 22 -10 25 -5 3 -10 26 -10 50 0 24 -6 50
-13 57 -9 9 -13 51 -14 138 -1 156 -12 306 -24 338 -5 14 -7 27 -4 30 2 3 1
10 -4 16 -5 6 -11 43 -14 82 -4 39 -9 77 -11 85 -3 8 -7 39 -10 69 -12 144
-18 172 -36 167 -21 -5 -21 13 0 38 9 11 11 22 4 32 -16 25 -29 20 -32 -14 -2
-24 -10 -34 -33 -43 -16 -7 -32 -10 -36 -6 -7 7 37 96 47 96 4 0 10 10 13 21
5 17 11 20 31 17 28 -6 36 6 36 52 0 39 -14 45 -35 14 -14 -22 -15 -28 -4 -36
10 -6 7 -7 -8 -3 -14 4 -23 2 -23 -4 0 -21 -31 -11 -66 22 -39 34 -60 70 -67
108 -3 13 -10 43 -16 67 -10 37 -15 42 -40 42 -16 0 -34 -7 -41 -15 -14 -17
-44 -12 -71 12 -9 8 -33 18 -53 24 -20 6 -34 14 -31 20 4 5 -1 9 -9 9 -9 0
-16 -4 -16 -10 0 -5 -8 -10 -18 -10 -27 0 -97 -64 -128 -118 -18 -31 -27 -62
-28 -92 l-1 -45 -62 -1 c-37 0 -71 -7 -85 -16 -22 -14 -26 -14 -44 1 -11 9
-26 31 -33 49 -12 28 -12 35 3 51 26 28 20 67 -13 91 -21 14 -32 17 -37 9 -12
-20 -11 -99 2 -110 9 -8 9 -16 -2 -38 -25 -49 -48 -64 -98 -59 -60 6 -76 -4
-76 -52 0 -21 -4 -40 -10 -42 -5 -1 -13 -31 -16 -66 -9 -79 -32 -102 -106
-102 -59 0 -98 31 -98 78 0 38 -16 50 -64 50 -22 0 -42 6 -47 14 -5 7 -9 -566
-9 -1294 l0 -1308 2400 0 2400 0 0 1119 0 1119 -37 -10 c-21 -6 -44 -12 -51
-14 -11 -3 -10 -7 2 -20 21 -20 20 -27 -4 -49 -19 -18 -21 -17 -56 1 -20 10
-38 22 -40 27 -9 13 7 47 21 47 8 0 12 6 9 14 -4 9 6 18 30 27 24 9 33 16 26
23 -14 14 18 46 47 46 25 0 45 31 25 38 -9 3 -9 9 -1 23 5 11 7 30 3 42 -8 23
-10 38 -19 132 -5 50 -7 474 -5 795 1 47 1 96 1 110 0 14 2 60 5 103 4 49 2
77 -5 77 -18 0 -23 -19 -26 -98 -4 -103 -15 -163 -31 -180 -16 -16 -19 -42 -4
-42 6 0 10 -7 10 -15 0 -8 -4 -15 -10 -15 -5 0 -12 -16 -16 -37 -4 -20 -13
-48 -20 -62 -14 -26 -14 -26 -16 14 -2 63 -3 69 -11 82 -5 7 -11 153 -14 325
-5 263 -3 328 11 406 9 50 16 136 16 190 0 53 5 172 12 265 9 133 15 167 26
167 11 0 12 3 3 13 -6 8 -8 17 -4 20 12 12 23 7 24 -10 0 -15 1 -15 8 2 5 11
10 67 12 124 3 79 1 105 -9 107 -7 1 -8 0 -2 -3 5 -2 10 -12 10 -21 0 -15 -2
-15 -10 -2 -7 10 -10 -9 -10 -64 0 -105 -7 -94 -11 16 l-3 88 33 24 c27 20 61
66 61 82 0 8 -39 4 -44 -5 -8 -12 -36 -8 -45 8 -4 6 -3 27 3 46 9 30 15 35 42
35 23 0 34 -6 43 -26 6 -14 9 -30 6 -35 -4 -5 -1 -9 4 -9 8 0 11 87 11 270 0
173 -4 270 -10 270 -5 0 -10 -4 -10 -9 0 -14 -64 -51 -87 -51 -29 0 -53 32
-53 68 l0 32 -345 0 c-190 0 -345 -2 -345 -5z m766 -177 c4 -6 13 -35 20 -64
10 -46 10 -55 -7 -80 -13 -21 -17 -40 -14 -70 6 -49 -11 -72 -38 -51 -13 9
-17 28 -17 82 -1 118 0 126 15 132 9 3 15 18 15 34 0 30 13 38 26 17z m-2093
-28 c41 -6 92 -22 125 -40 31 -16 64 -30 72 -30 13 0 13 -2 1 -9 -11 -7 -7
-12 20 -20 l34 -11 -40 6 c-22 2 -53 10 -69 16 -25 10 -31 9 -45 -8 -9 -11
-22 -19 -29 -16 -11 3 -11 0 -1 -16 18 -28 11 -32 -39 -25 -35 5 -42 9 -42 28
0 32 -12 38 -24 12 -11 -20 -19 -22 -86 -23 -42 0 -87 -3 -100 -7 -14 -3 -32
-2 -40 3 -12 8 -10 10 10 11 14 1 28 1 32 0 4 0 10 8 13 19 4 11 11 20 17 20
6 0 1 9 -12 20 -13 11 -20 23 -17 27 4 3 2 12 -4 20 -9 10 -8 13 0 13 7 0 9 5
6 10 -8 13 127 13 218 0z m-383 -46 c0 -8 -20 -26 -62 -54 -21 -14 -38 -28
-38 -32 0 -4 -11 -3 -25 4 -27 12 -24 28 5 28 10 0 20 4 22 9 3 9 77 51 90 51
5 0 8 -3 8 -6z m39 -38 c13 -15 10 -19 -55 -59 -36 -23 -44 -24 -60 -12 -18
13 -17 14 11 37 61 48 86 56 104 34z m1024 -13 c4 -3 2 -12 -3 -18 -8 -9 4
-16 42 -28 29 -8 70 -18 92 -21 35 -5 37 -4 20 9 -18 14 -18 14 7 15 28 0 87
-22 125 -47 l24 -15 -20 -26 c-11 -13 -59 -66 -108 -116 -89 -93 -152 -146
-152 -127 0 6 -6 11 -14 11 -11 0 -12 5 -3 25 7 14 18 25 25 25 9 0 10 5 4 17
-7 12 -4 22 9 36 14 15 16 24 8 39 -5 10 -7 23 -4 28 3 6 0 10 -7 10 -7 1 -31
9 -53 20 -22 11 -49 20 -60 20 -39 1 -65 41 -44 66 9 11 8 14 -4 14 -8 0 -23
3 -33 7 -13 5 -15 3 -10 -8 4 -8 0 -5 -9 6 -15 19 -15 20 7 23 12 2 31 10 42
18 25 17 56 18 56 2 0 -9 3 -10 8 -2 6 10 27 21 43 23 3 1 9 -2 12 -6z m-973
-32 c15 -29 5 -44 -51 -69 -49 -23 -51 -23 -64 -5 -8 10 -15 21 -15 25 0 11
57 48 73 48 9 0 19 5 22 10 10 16 23 12 35 -9z m1040 9 c20 -6 21 -8 5 -8 -11
0 -29 3 -40 8 -25 11 1 11 35 0z m50 -20 c0 -5 -2 -10 -4 -10 -3 0 -8 5 -11
10 -3 6 -1 10 4 10 6 0 11 -4 11 -10z m-1287 -24 c21 -7 19 -25 -5 -40 -12 -7
-24 -6 -42 3 -13 8 -38 11 -55 9 -33 -5 -36 -2 -22 20 11 17 71 31 91 21 8 -4
23 -10 33 -13z m440 -23 c7 -36 1 -41 -53 -45 -41 -3 -45 -1 -42 19 2 12 -2
24 -8 28 -21 13 2 25 49 25 45 0 49 -2 54 -27z m70 0 c42 -23 49 -35 33 -52
-9 -8 -24 -11 -43 -7 -26 6 -29 11 -29 41 1 19 3 35 4 35 2 0 18 -8 35 -17z
m-448 -30 c10 -14 10 -20 -1 -30 -16 -16 -54 -1 -54 21 0 30 36 36 55 9z m163
-8 c11 -23 9 -26 -25 -40 -32 -14 -39 -14 -60 0 -32 21 -29 30 15 48 51 22 57
21 70 -8z m-116 -42 c23 -21 23 -29 -1 -36 -22 -5 -51 21 -44 41 6 17 23 15
45 -5z m312 11 c9 -3 16 -17 16 -30 0 -21 -4 -24 -40 -24 -38 0 -40 2 -40 30
0 25 4 30 24 30 13 0 31 -3 40 -6z m-540 -10 c72 -10 54 -21 -34 -20 -67 1
-77 3 -63 14 19 14 32 15 97 6z m620 -4 c16 -6 26 -17 26 -30 0 -16 -7 -20
-32 -20 -28 -1 -30 -2 -15 -11 14 -8 16 -14 6 -25 -16 -20 -40 -18 -36 4 12
60 20 92 22 92 2 0 15 -4 29 -10z m1299 -2 c2 -7 -1 -35 -9 -63 -7 -27 -10
-61 -7 -75 2 -14 -3 -38 -11 -55 -11 -20 -16 -24 -16 -12 0 9 -5 26 -12 36 -6
11 -8 26 -3 37 6 16 9 14 18 -16 7 -24 12 -29 14 -17 4 13 -20 66 -43 96 -2 2
-10 -2 -18 -8 -12 -10 -18 -8 -31 13 -14 21 -15 28 -3 39 7 7 25 14 41 14 45
2 48 3 42 13 -3 6 3 10 13 10 11 0 22 -6 25 -12z m-1542 -19 c9 -17 8 -23 -2
-30 -11 -7 -10 -9 4 -9 9 0 17 -2 17 -4 0 -2 3 -11 6 -19 3 -10 -3 -17 -21
-21 -21 -5 -32 -1 -55 24 -40 43 -41 53 -6 67 43 16 44 16 57 -8z m883 4 c4
-9 0 -23 -8 -32 -18 -18 -22 -15 -31 22 -6 23 -4 27 13 27 11 0 23 -8 26 -17z
m-1178 -7 c17 -18 18 -26 2 -26 -22 0 -41 17 -34 29 9 14 15 14 32 -3z m195
-26 c26 -15 24 -30 -5 -30 -28 0 -54 25 -34 33 7 3 14 6 16 6 2 1 12 -4 23 -9z
m-122 -17 c13 -10 31 -25 40 -33 9 -8 27 -20 41 -27 19 -9 21 -12 7 -12 -20
-1 -68 27 -80 46 -4 7 -16 13 -26 13 -11 0 -21 7 -25 15 -7 20 15 19 43 -2z
m385 0 c8 -19 -11 -34 -39 -31 -18 3 -27 22 -18 41 8 14 51 7 57 -10z m1176
-3 c0 -5 -7 -10 -15 -10 -8 0 -15 -5 -15 -11 0 -6 9 -9 19 -6 15 3 19 0 18
-14 -1 -11 -5 -19 -10 -19 -5 0 -4 -7 3 -15 6 -8 8 -20 4 -27 -5 -10 -4 -10 5
-2 14 13 17 59 5 94 -7 22 -6 24 9 12 23 -19 70 -102 62 -110 -3 -4 -10 0 -15
8 -5 8 -12 11 -16 7 -4 -3 -1 -13 5 -21 16 -19 6 -36 -19 -36 -16 0 -18 -4
-11 -23 6 -15 4 -26 -4 -34 -16 -15 -25 -6 -25 23 0 13 -5 26 -11 30 -8 4 -9
-1 -4 -17 l7 -24 -26 25 c-15 13 -24 30 -22 37 4 9 -4 13 -22 14 -15 0 -21 3
-14 6 6 2 10 9 6 14 -6 11 -24 12 -23 2 4 -22 -2 -43 -12 -43 -5 0 -7 5 -4 10
3 6 3 14 0 20 -9 14 -34 -12 -27 -28 3 -8 -1 -18 -9 -22 -7 -5 -10 -13 -5 -17
5 -4 11 -2 13 5 3 6 20 12 39 12 28 0 36 -5 44 -26 16 -41 13 -67 -7 -60 -9 4
-19 2 -23 -4 -9 -14 -53 19 -46 36 3 8 2 13 -2 13 -4 -1 -10 0 -14 1 -10 3
-25 7 -35 9 -5 1 -1 6 7 12 12 9 12 10 -3 5 -10 -3 -24 -6 -30 -6 -6 0 0 -11
12 -24 24 -25 23 -26 -26 -53 -13 -6 -23 -8 -23 -2 0 5 -4 9 -10 9 -5 0 -7 -7
-4 -15 4 -9 0 -15 -10 -15 -9 0 -15 3 -15 8 1 4 1 14 0 22 -1 11 -3 12 -9 3
-5 -8 -13 -9 -22 -3 -13 8 -11 12 8 25 12 9 22 22 21 28 0 9 -2 9 -6 0 -5 -14
-39 -18 -47 -5 -5 9 45 50 89 72 17 8 35 21 41 29 7 9 20 12 39 7 22 -6 26 -4
22 8 -6 15 31 46 54 46 19 0 49 -31 49 -51 0 -24 20 -35 31 -18 12 19 11 29
-2 29 -12 0 -29 17 -46 47 -11 19 -9 23 15 31 36 14 62 14 62 2z m-506 -50
c-7 -6 -24 22 -23 40 0 9 6 5 14 -10 7 -14 11 -27 9 -30z m-1092 -23 c37 -17
68 -37 68 -44 0 -7 -4 -13 -10 -13 -12 0 -51 -75 -43 -84 6 -6 -23 -9 -30 -3
-2 1 -12 -4 -21 -12 -11 -10 -20 -11 -24 -5 -4 6 -36 16 -72 23 -93 19 -100
21 -97 34 1 6 -2 11 -8 12 -5 0 -19 6 -30 12 -20 12 -20 12 1 13 12 0 24 7 28
15 3 9 0 15 -9 15 -16 0 -29 37 -23 67 8 43 146 28 270 -30z m206 36 c5 -18
-23 -16 -39 3 -11 14 -10 15 11 12 13 -1 25 -9 28 -15z m167 -78 c0 -23 -5
-31 -21 -33 -16 -2 -24 4 -32 27 -12 35 -7 43 28 39 20 -2 25 -8 25 -33z
m-116 16 c7 -5 10 -14 7 -20 -4 -6 -1 -11 7 -11 23 0 15 -30 -10 -36 -16 -4
-35 2 -58 17 -41 28 -42 32 -12 47 27 13 48 14 66 3z m861 -1 c0 -5 -2 -10 -4
-10 -3 0 -8 5 -11 10 -3 6 -1 10 4 10 6 0 11 -4 11 -10z m-627 -6 c7 -8 -17
-34 -31 -34 -6 0 -8 9 -5 20 5 19 23 26 36 14z m1216 -54 c0 -10 -3 -8 -9 5
-12 27 -12 43 0 25 5 -8 9 -22 9 -30z m91 12 c0 -15 -2 -15 -10 -2 -13 20 -13
33 0 25 6 -3 10 -14 10 -23z m-1644 -3 c35 -21 44 -39 22 -39 -7 0 -30 -3 -50
-6 -37 -6 -38 -6 -38 23 0 49 15 54 66 22z m1364 11 c0 -5 -4 -10 -10 -10 -5
0 -10 5 -10 10 0 6 5 10 10 10 6 0 10 -4 10 -10z m-1795 -30 c3 -5 1 -10 -4
-10 -6 0 -11 5 -11 10 0 6 2 10 4 10 3 0 8 -4 11 -10z m2080 -10 c3 -5 8 -38
11 -72 3 -35 7 -70 10 -78 3 -10 2 -11 -4 -5 -5 6 -16 37 -24 70 -9 33 -19 68
-23 78 -5 12 -3 17 8 17 9 0 19 -4 22 -10z m-1908 -49 c3 -2 -10 -41 -14 -41
-2 0 -11 7 -20 15 -10 11 -26 14 -51 10 -35 -6 -36 -6 -17 10 16 13 69 16 102
6z m-170 -57 c-3 -3 -12 -4 -19 -1 -8 3 -5 6 6 6 11 1 17 -2 13 -5z m1881 -59
c-2 -25 1 -45 5 -45 5 0 5 -5 2 -10 -8 -14 -28 -1 -22 14 3 6 -1 20 -9 31 -21
28 -18 55 7 55 19 0 21 -5 17 -45z m311 -135 c12 -106 6 -424 -10 -537 -7 -48
-7 -84 0 -110 12 -45 15 -177 7 -288 -3 -44 -8 -134 -11 -200 -4 -66 -10 -124
-14 -130 -10 -12 -21 -67 -24 -112 -2 -28 -5 -32 -22 -27 -20 6 -67 42 -73 57
-2 4 -10 7 -18 7 -16 0 -20 39 -4 41 6 1 15 3 20 4 6 1 15 3 21 4 6 0 8 12 5
29 -4 15 -9 40 -12 56 -2 15 -11 35 -19 43 -8 8 -15 22 -15 31 0 21 28 112 29
95 1 -7 6 -13 11 -13 7 0 8 13 4 35 -4 23 -2 41 7 51 10 12 10 17 1 23 -10 6
-9 16 3 45 12 28 17 89 20 269 2 130 0 223 -4 212 -10 -22 -10 -22 -30 46 -9
29 -8 47 9 102 12 37 25 67 31 67 6 0 8 9 4 20 -3 10 -1 37 4 58 6 22 12 65
12 95 1 31 5 55 9 52 4 -2 7 9 7 25 0 31 22 66 33 53 5 -4 13 -51 19 -103z
m-269 70 c0 -5 -5 -10 -11 -10 -5 0 -7 5 -4 10 3 6 8 10 11 10 2 0 4 -4 4 -10z
m155 -160 c25 -4 17 -11 -9 -8 -16 1 -31 9 -34 16 -3 11 0 12 14 4 11 -6 24
-11 29 -12z m-2473 -235 c16 -19 15 -20 -8 -21 -19 -2 -24 2 -20 13 3 8 6 20
6 25 0 6 1 9 3 7 1 -2 10 -13 19 -24z m-276 -14 c13 -13 93 -18 98 -6 2 5 5
-3 6 -20 2 -30 2 -30 10 -5 l8 25 1 -24 c1 -19 4 -21 15 -12 11 10 15 5 18
-28 3 -32 0 -41 -15 -45 -10 -2 -21 -13 -24 -24 -4 -17 -14 -19 -90 -20 -47 0
-92 2 -99 5 -10 4 -14 26 -14 78 0 62 3 74 18 78 30 8 58 7 68 -2z m254 -41
c0 -5 -2 -10 -4 -10 -3 0 -8 5 -11 10 -3 6 -1 10 4 10 6 0 11 -4 11 -10z m115
0 c18 -8 17 -9 -7 -9 -16 -1 -28 4 -28 9 0 12 8 12 35 0z m-128 -42 c-3 -8 -6
-5 -6 6 -1 11 2 17 5 13 3 -3 4 -12 1 -19z m205 3 c8 12 9 12 6 0 -6 -22 -28
-25 -27 -4 0 12 2 14 6 4 5 -11 7 -11 15 0z m54 -37 c-19 -17 -22 -24 -13 -34
9 -10 9 -11 0 -6 -8 4 -13 1 -13 -8 0 -9 -4 -16 -10 -16 -5 0 -10 -7 -10 -16
0 -22 -28 -47 -45 -40 -8 3 -15 10 -15 15 0 15 -33 22 -42 9 -6 -10 -8 -9 -8
4 0 9 -6 18 -12 21 -8 2 -9 8 -4 13 5 5 11 4 13 -3 6 -18 23 -16 23 2 0 21 18
19 23 -2 4 -14 5 -12 6 5 1 14 7 22 19 22 9 0 26 11 36 25 10 13 22 22 27 20
4 -3 10 -1 14 5 3 5 1 10 -4 10 -6 0 -11 4 -11 9 0 5 11 4 25 -2 l26 -12 -25
-21z m-161 16 c3 -5 -1 -10 -9 -10 -9 0 -16 5 -16 10 0 6 4 10 9 10 6 0 13 -4
16 -10z m-100 -20 c3 -5 -1 -10 -10 -10 -9 0 -13 5 -10 10 3 6 8 10 10 10 2 0
7 -4 10 -10z m365 -65 c0 -8 -4 -15 -10 -15 -5 0 -10 7 -10 15 0 8 5 15 10 15
6 0 10 -7 10 -15z m1950 -60 c0 -65 -19 -95 -21 -32 0 17 -4 41 -8 52 -8 20 3
45 20 45 5 0 9 -29 9 -65z m-2320 35 c0 -5 -4 -10 -10 -10 -5 0 -10 5 -10 10
0 6 5 10 10 10 6 0 10 -4 10 -10z m80 -15 c0 -8 -4 -15 -10 -15 -5 0 -10 7
-10 15 0 8 5 15 10 15 6 0 10 -7 10 -15z m2190 -4 c0 -6 -9 -9 -19 -8 -11 0
-17 5 -15 9 7 11 34 10 34 -1z m-12 -67 c2 -29 -1 -43 -8 -39 -6 4 -8 16 -5
27 5 14 1 21 -14 25 -29 7 -27 33 2 33 21 0 24 -5 25 -46z m-2220 4 c-6 -16
-48 -18 -48 -1 0 7 11 13 26 13 15 0 24 -5 22 -12z m2318 -15 c-10 -10 -19 5
-10 18 6 11 8 11 12 0 2 -7 1 -15 -2 -18z m-2386 -12 c0 -6 -4 -13 -10 -16 -5
-3 -10 1 -10 9 0 9 5 16 10 16 6 0 10 -4 10 -9z m2340 -22 c0 -11 -4 -18 -10
-14 -5 3 -7 12 -3 20 7 21 13 19 13 -6z m-890 -41 c0 -4 -9 -8 -20 -8 -14 0
-20 -7 -20 -21 0 -12 -4 -17 -11 -14 -6 4 -8 13 -5 21 3 8 1 14 -4 14 -6 0
-10 4 -10 9 0 5 16 9 35 8 19 -1 35 -5 35 -9z m925 2 c3 -5 -1 -10 -10 -10 -9
0 -13 5 -10 10 3 6 8 10 10 10 2 0 7 -4 10 -10z m-42 -97 c-7 -2 -21 -2 -30 0
-10 3 -4 5 12 5 17 0 24 -2 18 -5z m-1086 -475 c-3 -8 -6 -5 -6 6 -1 11 2 17
5 13 3 -3 4 -12 1 -19z m1140 -60 c-3 -8 -6 -5 -6 6 -1 11 2 17 5 13 3 -3 4
-12 1 -19z m919 -15 c-10 -10 -19 5 -10 18 6 11 8 11 12 0 2 -7 1 -15 -2 -18z
m-929 -65 c-3 -8 -6 -5 -6 6 -1 11 2 17 5 13 3 -3 4 -12 1 -19z m3 -34 c0 -8
-5 -12 -10 -9 -6 4 -8 11 -5 16 9 14 15 11 15 -7z m0 -44 c0 -5 -5 -10 -11
-10 -5 0 -7 5 -4 10 3 6 8 10 11 10 2 0 4 -4 4 -10z m-4 -47 c-10 -10 -19 5
-10 18 6 11 8 11 12 0 2 -7 1 -15 -2 -18z m11 -58 c0 -8 -6 -16 -14 -19 -16
-7 -17 6 -1 22 15 15 15 15 15 -3z m3 -35 c0 -5 -4 -10 -10 -10 -5 0 -10 5
-10 10 0 6 5 10 10 10 6 0 10 -4 10 -10z m-21 -40 c4 -3 1 -27 -5 -55 -14 -56
-14 -56 -18 3 -1 26 1 37 6 30 5 -8 7 3 4 27 -3 22 -3 31 1 20 3 -11 8 -22 12
-25z m-823 -39 c5 -5 18 -11 29 -13 12 -2 20 -11 20 -23 0 -11 7 -20 15 -20
10 0 14 -9 12 -24 -1 -13 2 -29 8 -36 10 -12 -4 -73 -19 -85 -28 -22 -39 -236
-14 -261 10 -10 10 -16 0 -27 -8 -10 -13 -57 -14 -131 -2 -154 -2 -151 -21
-108 -19 42 -27 45 -42 17 -9 -16 -8 -22 5 -26 21 -8 19 -21 -5 -27 -10 -3
-18 0 -17 5 1 6 -4 13 -12 16 -10 3 -12 0 -8 -11 3 -9 2 -19 -2 -22 -5 -3 -7
-14 -4 -24 3 -10 0 -22 -6 -25 -6 -4 -11 -18 -11 -32 0 -15 -6 -24 -15 -24 -8
0 -15 -4 -15 -10 0 -23 -27 -6 -93 60 -38 39 -76 70 -85 70 -8 0 -13 3 -9 6 3
4 -17 22 -46 42 -29 19 -54 36 -55 38 -2 1 -5 18 -7 38 -3 27 3 41 26 65 18
19 35 28 44 24 11 -4 18 2 22 18 6 22 7 22 14 3 7 -17 8 -16 8 6 1 14 4 34 7
46 4 15 -1 23 -18 31 -26 12 -77 9 -87 -4 -8 -10 -92 -10 -109 0 -7 5 -9 14
-5 20 5 7 8 19 9 27 0 8 6 30 14 48 11 31 16 33 42 28 27 -5 30 -3 25 14 -7
27 33 66 97 95 30 13 57 29 61 34 10 18 45 13 46 -6 1 -12 4 -10 9 7 4 14 8
19 9 11 2 -27 29 9 45 62 23 72 35 93 60 105 27 13 79 15 92 3z m868 -115 c16
-16 29 -18 97 -13 55 5 79 3 79 -5 0 -16 41 -50 96 -78 56 -29 89 -60 108
-104 8 -17 21 -48 30 -69 24 -53 18 -70 -28 -79 -22 -5 -44 -12 -50 -17 -21
-16 -419 -2 -449 16 -10 6 1 64 14 78 14 14 11 25 -6 25 -9 0 -15 9 -15 23 0
13 -5 28 -11 34 -9 9 -8 16 4 28 9 9 19 15 22 15 4 -1 9 1 13 4 3 3 -3 6 -12
6 -14 0 -17 5 -12 24 5 20 3 23 -14 19 -11 -3 -20 -1 -20 5 0 5 6 10 13 9 6 0
21 1 32 2 16 1 17 3 6 10 -24 15 -24 51 -1 51 11 0 25 8 31 18 15 23 48 22 73
-2z m-2641 3 c2 -2 7 -26 11 -52 l6 -49 -60 6 c-71 7 -149 48 -150 78 0 15
181 32 193 17z m52 -209 c3 -5 2 -10 -3 -10 -5 0 -15 -14 -22 -30 -16 -38 -47
-46 -105 -30 -38 11 -48 10 -69 -4 -30 -19 -39 -20 -34 -4 2 6 26 19 54 29 27
10 74 27 104 38 64 24 67 24 75 11z m1185 0 c0 -5 -5 -10 -11 -10 -5 0 -7 5
-4 10 3 6 8 10 11 10 2 0 4 -4 4 -10z m-20 -80 c0 -19 -20 -27 -33 -13 -8 7
11 33 24 33 5 0 9 -9 9 -20z m1300 0 c0 -5 -7 -10 -16 -10 -8 0 -12 5 -9 10 3
6 10 10 16 10 5 0 9 -4 9 -10z m-3032 -60 c15 -1 15 -2 -1 -11 -21 -12 -47 -5
-47 12 0 6 7 8 16 5 9 -3 23 -6 32 -6z m1660 -7 c-5 -25 -28 -28 -28 -4 0 12
6 21 16 21 9 0 14 -7 12 -17z m1342 -53 c21 -11 249 -20 255 -10 3 5 22 4 42
-1 21 -5 56 -9 78 -9 22 0 50 -3 62 -6 34 -9 22 -51 -31 -108 l-45 -49 -43 17
c-75 32 -82 35 -108 42 -14 4 -42 21 -62 38 -25 22 -49 33 -75 34 -26 2 -46
11 -62 29 -23 24 -25 25 -32 7 -7 -17 -8 -17 -8 4 -1 25 2 26 29 12z m-2136
-635 c3 -8 1 -15 -4 -15 -6 0 -10 7 -10 15 0 8 2 15 4 15 2 0 6 -7 10 -15z
m266 -84 c0 -18 -15 -19 -40 -5 l-25 13 33 1 c17 0 32 -4 32 -9z m-15 -268
c-3 -13 -12 -23 -20 -23 -16 0 -21 25 -7 34 5 3 6 28 2 56 -5 39 -3 53 7 57 7
3 14 15 15 27 1 11 4 -13 5 -54 2 -41 1 -85 -2 -97z m55 -33 c0 -10 -4 -22
-10 -25 -6 -4 -10 7 -10 25 0 18 4 29 10 25 6 -3 10 -15 10 -25z"/>
<path d="M2430 5300 c0 -5 5 -10 10 -10 6 0 10 5 10 10 0 6 -4 10 -10 10 -5 0
-10 -4 -10 -10z"/>
<path d="M3294 5229 c-6 -10 3 -15 66 -28 58 -13 73 -13 65 -1 -4 6 -11 8 -16
5 -5 -4 -9 -2 -9 3 0 5 -6 9 -12 10 -7 0 -30 5 -51 10 -22 6 -39 6 -43 1z"/>
<path d="M3405 5150 c-3 -5 -1 -10 4 -10 6 0 11 5 11 10 0 6 -2 10 -4 10 -3 0
-8 -4 -11 -10z"/>
<path d="M3883 5066 c10 -21 13 -22 24 -7 7 9 12 21 13 26 0 6 -5 3 -11 -5 -8
-11 -12 -12 -16 -2 -2 6 -8 12 -13 12 -4 0 -3 -11 3 -24z"/>
<path d="M2345 5070 c4 -6 11 -8 16 -5 14 9 11 15 -7 15 -8 0 -12 -5 -9 -10z"/>
<path d="M3765 5000 c4 -6 11 -8 16 -5 14 9 11 15 -7 15 -8 0 -12 -5 -9 -10z"/>
<path d="M3750 4951 c0 -5 7 -12 16 -15 24 -9 28 -7 14 9 -14 17 -30 20 -30 6z"/>
<path d="M3529 4923 c-13 -16 -12 -17 4 -4 16 13 21 21 13 21 -2 0 -10 -8 -17
-17z"/>
<path d="M3698 4933 c6 -2 18 -2 25 0 6 3 1 5 -13 5 -14 0 -19 -2 -12 -5z"/>
<path d="M3954 4364 c-4 -10 -9 -22 -11 -26 -2 -5 0 -8 5 -8 10 0 24 41 17 48
-3 3 -8 -4 -11 -14z"/>
<path d="M3940 4299 c0 -5 5 -7 10 -4 6 3 10 8 10 11 0 2 -4 4 -10 4 -5 0 -10
-5 -10 -11z"/>
<path d="M3921 3494 c0 -11 3 -14 6 -6 3 7 2 16 -1 19 -3 4 -6 -2 -5 -13z"/>
<path d="M1595 4050 c4 -6 11 -8 16 -5 14 9 11 15 -7 15 -8 0 -12 -5 -9 -10z"/>
<path d="M3690 2540 c0 -5 5 -10 10 -10 6 0 10 5 10 10 0 6 -4 10 -10 10 -5 0
-10 -4 -10 -10z"/>
<path d="M1870 5600 c0 -5 5 -10 10 -10 6 0 10 5 10 10 0 6 -4 10 -10 10 -5 0
-10 -4 -10 -10z"/>
<path d="M1865 5570 c-3 -5 -2 -16 2 -24 7 -13 11 -12 28 0 17 13 18 16 5 24
-19 12 -27 12 -35 0z"/>
<path d="M1913 5546 c-10 -11 -9 -15 2 -20 20 -7 85 5 85 16 0 5 9 7 19 3 11
-3 22 -1 26 5 10 16 -117 12 -132 -4z"/>
<path d="M1 4796 l-1 -90 65 -62 c35 -34 61 -64 58 -68 -4 -3 3 -15 15 -26 23
-21 29 -46 13 -52 -4 -1 -11 -24 -15 -49 -6 -39 -4 -47 11 -53 56 -20 93 -53
94 -85 2 -23 2 -24 6 -3 2 12 9 22 14 22 5 0 9 8 9 18 0 21 64 82 86 82 8 0
14 5 14 10 0 6 6 10 14 10 16 0 29 27 17 34 -5 3 -14 26 -21 51 -7 25 -17 45
-21 45 -5 0 -9 7 -9 15 0 8 -4 15 -9 15 -4 0 -25 14 -46 30 -21 17 -46 30 -56
30 -11 0 -19 4 -19 8 0 5 -18 19 -40 31 -23 13 -46 31 -53 42 -6 10 -15 19
-19 19 -10 0 -94 85 -101 101 -3 8 -6 -26 -6 -75z"/>
<path d="M215 4120 c-3 -5 1 -10 10 -10 9 0 13 5 10 10 -3 6 -8 10 -10 10 -2
0 -7 -4 -10 -10z"/>
<path d="M208 4072 c0 -9 -2 -21 -3 -27 -2 -5 -4 -19 -5 -30 -1 -11 -4 -15 -7
-7 -7 18 -33 15 -33 -5 0 -14 -2 -15 -9 -4 -5 7 -6 22 -4 32 3 10 1 19 -4 19
-19 0 -21 -12 -8 -42 10 -25 19 -32 49 -35 26 -3 36 0 36 10 0 8 9 26 21 41
11 14 16 26 10 26 -6 0 -11 6 -11 14 0 21 -30 29 -32 8z"/>
<path d="M165 4061 c-3 -5 -1 -12 5 -16 5 -3 10 1 10 9 0 18 -6 21 -15 7z"/>
<path d="M1696 4048 c-3 -13 -6 -32 -6 -42 0 -29 16 -7 23 32 7 36 -7 44 -17
10z"/>
<path d="M1636 3953 c-27 -7 -44 -25 -38 -42 3 -8 0 -11 -6 -7 -6 3 -13 2 -17
-4 -13 -21 22 -9 45 15 27 28 40 32 40 10 0 -8 -4 -15 -10 -15 -5 0 -9 -11 -8
-25 2 -25 18 -36 18 -13 0 7 12 25 28 41 24 26 25 29 7 27 -33 -4 -41 0 -25
10 13 9 13 10 0 9 -8 -1 -24 -4 -34 -6z"/>
<path d="M1530 3906 c0 -4 7 -14 15 -22 8 -9 15 -11 15 -6 0 5 -7 15 -15 22
-8 7 -15 9 -15 6z"/>
<path d="M1676 3875 c-6 -17 17 -31 34 -20 5 3 10 13 10 21 0 19 -36 18 -44
-1z"/>
<path d="M1375 3860 c3 -5 13 -10 21 -10 8 0 14 5 14 10 0 6 -9 10 -21 10 -11
0 -17 -4 -14 -10z"/>
<path d="M1620 3839 c0 -5 5 -7 10 -4 6 3 10 8 10 11 0 2 -4 4 -10 4 -5 0 -10
-5 -10 -11z"/>
<path d="M4742 3820 c0 -14 2 -19 5 -12 2 6 2 18 0 25 -3 6 -5 1 -5 -13z"/>
<path d="M1390 3821 c0 -5 5 -13 10 -16 6 -3 10 -2 10 4 0 5 -4 13 -10 16 -5
3 -10 2 -10 -4z"/>
<path d="M1646 3814 c-11 -7 -17 -17 -13 -20 3 -4 14 1 23 10 21 22 15 28 -10
10z"/>
<path d="M1564 3794 c4 -11 2 -15 -8 -11 -10 4 -13 1 -9 -9 7 -18 19 -18 27 1
3 9 12 12 23 9 16 -5 16 -4 -1 10 -25 21 -40 20 -32 0z"/>
<path d="M1370 3770 c0 -11 6 -20 13 -20 8 0 14 7 14 15 0 8 -6 16 -14 19 -8
3 -13 -2 -13 -14z"/>
<path d="M1516 3764 c-4 -10 -13 -13 -25 -9 -16 5 -18 2 -14 -14 3 -12 9 -19
13 -16 4 3 10 -4 13 -16 4 -16 2 -19 -14 -14 -13 4 -19 2 -19 -9 0 -10 9 -16
22 -16 20 0 20 -1 4 -19 -15 -17 -22 -18 -43 -8 -16 7 -23 17 -20 29 3 10 1
18 -4 18 -12 0 -11 -20 2 -59 12 -35 24 -38 51 -14 17 15 18 15 18 -5 0 -11
-4 -23 -10 -27 -5 -3 -7 -12 -3 -20 3 -8 0 -15 -6 -15 -7 0 -14 7 -17 15 -4 9
-11 15 -18 14 -32 -4 -52 11 -105 80 -31 41 -59 41 -57 2 1 -16 4 -27 9 -24
15 9 6 -30 -9 -42 -16 -11 -16 -14 -1 -45 11 -20 15 -48 12 -75 -4 -37 -1 -44
20 -53 14 -7 25 -18 25 -27 0 -21 -40 -19 -55 2 -11 15 -16 13 -48 -21 -44
-46 -52 -91 -31 -171 8 -33 18 -71 21 -85 4 -13 12 -30 19 -37 10 -11 13 -8
16 14 l3 28 27 -28 c26 -28 46 -96 33 -117 -3 -5 -1 -10 4 -10 6 0 11 -9 11
-19 0 -24 20 -38 30 -21 5 9 9 9 14 1 4 -6 11 -11 16 -11 18 0 20 39 6 93 -14
55 -11 123 9 170 4 10 3 17 -4 17 -6 0 -11 5 -11 11 0 5 5 7 10 4 6 -3 10 -1
10 5 0 14 25 40 39 40 12 0 14 11 5 34 -8 21 -25 10 -17 -12 4 -13 2 -13 -10
3 -9 11 -17 26 -17 33 0 23 -31 61 -45 56 -21 -9 -26 12 -10 42 12 24 15 26
16 9 0 -17 2 -16 10 5 7 18 12 21 18 11 6 -9 10 -6 15 11 4 14 9 18 13 11 8
-22 33 -14 34 10 1 16 2 18 6 5 5 -22 23 -24 23 -3 0 8 5 14 11 13 6 -2 14 3
16 10 3 6 -2 12 -11 12 -9 0 -16 8 -16 19 0 13 9 20 30 25 28 5 30 8 30 51 0
39 3 45 21 45 16 0 19 4 14 21 -4 12 -8 29 -9 37 -3 15 -49 35 -59 26 -2 -3
-2 7 0 21 6 28 -1 34 -11 9z"/>
<path d="M4741 3764 c0 -11 3 -14 6 -6 3 7 2 16 -1 19 -3 4 -6 -2 -5 -13z"/>
<path d="M1420 3760 c0 -5 5 -10 11 -10 5 0 7 5 4 10 -3 6 -8 10 -11 10 -2 0
-4 -4 -4 -10z"/>
<path d="M1590 3760 c-12 -7 -12 -12 -3 -21 10 -10 14 -9 19 5 8 22 2 27 -16
16z"/>
<path d="M1410 3728 c0 -9 -3 -25 -6 -35 -5 -13 -1 -11 11 5 13 18 14 27 6 35
-8 8 -11 7 -11 -5z"/>
<path d="M1400 3630 c0 -11 4 -20 9 -20 5 0 7 9 4 20 -3 11 -7 20 -9 20 -2 0
-4 -9 -4 -20z"/>
<path d="M1184 3583 c3 -21 6 -67 6 -103 1 -54 3 -62 12 -45 6 11 14 22 17 25
18 16 42 80 36 99 -6 19 -54 61 -70 61 -4 0 -5 -17 -1 -37z"/>
<path d="M1584 3535 c0 -22 4 -35 12 -35 20 0 24 15 11 44 -16 35 -22 33 -23
-9z"/>
<path d="M1495 3430 c-3 -5 -1 -10 4 -10 6 0 11 5 11 10 0 6 -2 10 -4 10 -3 0
-8 -4 -11 -10z"/>
<path d="M2476 3348 c3 -4 14 -8 25 -8 11 0 18 4 14 9 -3 6 -14 9 -25 8 -10
-1 -16 -5 -14 -9z"/>
<path d="M1440 3219 c0 -5 5 -7 10 -4 6 3 10 8 10 11 0 2 -4 4 -10 4 -5 0 -10
-5 -10 -11z"/>
<path d="M365 3190 c3 -5 8 -10 11 -10 2 0 4 5 4 10 0 6 -5 10 -11 10 -5 0 -7
-4 -4 -10z"/>
<path d="M10 2911 c-5 -11 -10 -38 -10 -59 0 -36 2 -40 21 -35 31 9 52 47 44
83 -8 35 -38 41 -55 11z"/>
<path d="M352 2898 c-16 -16 -16 -78 1 -78 19 0 63 34 62 48 0 13 -32 42 -45
42 -3 0 -11 -5 -18 -12z"/>
<path d="M1553 2005 c5 -37 17 -42 17 -7 0 18 -5 32 -10 32 -6 0 -9 -11 -7
-25z"/>
<path d="M1560 1801 c0 -6 5 -13 10 -16 6 -3 10 1 10 9 0 9 -4 16 -10 16 -5 0
-10 -4 -10 -9z"/>
</g>
</svg>
